<?xml version="1.0" encoding="iso-8859-1"?>
<!-- Generator: Adobe Illustrator 19.0.0, SVG Export Plug-In . SVG Version: 6.00 Build 0)  -->
<svg version="1.1" id="Layer_1" xmlns="http://www.w3.org/2000/svg" xmlns:xlink="http://www.w3.org/1999/xlink" x="0px" y="0px"
	 viewBox="0 0 512 512" style="enable-background:new 0 0 512 512;" xml:space="preserve">
<g>
	<g>
		<path style="fill:#FF4F19;" d="M304.945,144l6.211-12.422c1.242-2.477,1.109-5.422-0.352-7.781
			c-1.46-2.36-4.031-3.797-6.804-3.797h-48c-4.422,0-8,3.578-8,8v32c0,4.422,3.578,8,8,8h48c2.773,0,5.344-1.438,6.805-3.797
			s1.594-5.305,0.352-7.781L304.945,144z"/>
	</g>
	<g>
		<g>
			<path style="fill:#5C546A;" d="M256,192c-4.422,0-8-3.578-8-8v-64c0-4.422,3.578-8,8-8s8,3.578,8,8v64
				C264,188.422,260.422,192,256,192z"/>
		</g>
	</g>
	<g>
		<rect x="360" y="272" style="fill:#868491;" width="128" height="112"/>
	</g>
	<g>
		<rect x="24" y="272" style="fill:#868491;" width="128" height="112"/>
	</g>
	<g>
		<g>
			<path style="fill:#B4B6BC;" d="M344,280h144c4.422,0,8-3.578,8-8s-3.578-8-8-8H344c-4.422,0-8,3.578-8,8S339.578,280,344,280z"/>
		</g>
	</g>
	<g>
		<g>
			<path style="fill:#B4B6BC;" d="M168,280H24c-4.422,0-8-3.578-8-8s3.578-8,8-8h144c4.422,0,8,3.578,8,8S172.422,280,168,280z"/>
		</g>
	</g>
	<g>
		<g>
			<g>
				<path style="fill:#5C546A;" d="M384,368c4.422,0,8-3.578,8-8v-8c0-4.422-3.578-8-8-8s-8,3.578-8,8v8
					C376,364.422,379.578,368,384,368z"/>
			</g>
		</g>
		<g>
			<g>
				<path style="fill:#5C546A;" d="M408,368c4.422,0,8-3.578,8-8v-8c0-4.422-3.578-8-8-8s-8,3.578-8,8v8
					C400,364.422,403.578,368,408,368z"/>
			</g>
		</g>
		<g>
			<g>
				<path style="fill:#5C546A;" d="M432,368c4.422,0,8-3.578,8-8v-8c0-4.422-3.578-8-8-8s-8,3.578-8,8v8
					C424,364.422,427.578,368,432,368z"/>
			</g>
		</g>
		<g>
			<g>
				<path style="fill:#5C546A;" d="M456,368c4.422,0,8-3.578,8-8v-8c0-4.422-3.578-8-8-8s-8,3.578-8,8v8
					C448,364.422,451.578,368,456,368z"/>
			</g>
		</g>
		<g>
			<g>
				<path style="fill:#5C546A;" d="M384,336c4.422,0,8-3.578,8-8v-24c0-4.422-3.578-8-8-8s-8,3.578-8,8v24
					C376,332.422,379.578,336,384,336z"/>
			</g>
		</g>
		<g>
			<g>
				<path style="fill:#5C546A;" d="M408,336c4.422,0,8-3.578,8-8v-24c0-4.422-3.578-8-8-8s-8,3.578-8,8v24
					C400,332.422,403.578,336,408,336z"/>
			</g>
		</g>
		<g>
			<g>
				<path style="fill:#5C546A;" d="M432,336c4.422,0,8-3.578,8-8v-24c0-4.422-3.578-8-8-8s-8,3.578-8,8v24
					C424,332.422,427.578,336,432,336z"/>
			</g>
		</g>
		<g>
			<g>
				<path style="fill:#5C546A;" d="M456,336c4.422,0,8-3.578,8-8v-24c0-4.422-3.578-8-8-8s-8,3.578-8,8v24
					C448,332.422,451.578,336,456,336z"/>
			</g>
		</g>
	</g>
	<g>
		<polygon style="fill:#B4B6BC;" points="152,244.266 360,244.266 256,188.804 		"/>
	</g>
	<g>
		<rect x="159.781" y="248" style="fill:#868491;" width="192" height="144"/>
	</g>
	<g>
		<g>
			<path style="fill:#B4B6BC;" d="M256,400c-4.422,0-8-3.578-8-8V248c0-4.422,3.578-8,8-8s8,3.578,8,8v144
				C264,396.422,260.422,400,256,400z"/>
		</g>
	</g>
	<g>
		<g>
			<path style="fill:#B4B6BC;" d="M224,400c-4.422,0-8-3.578-8-8V248c0-4.422,3.578-8,8-8s8,3.578,8,8v144
				C232,396.422,228.422,400,224,400z"/>
		</g>
	</g>
	<g>
		<g>
			<path style="fill:#B4B6BC;" d="M192,400c-4.422,0-8-3.578-8-8V248c0-4.422,3.578-8,8-8s8,3.578,8,8v144
				C200,396.422,196.422,400,192,400z"/>
		</g>
	</g>
	<g>
		<g>
			<path style="fill:#B4B6BC;" d="M320,400c-4.422,0-8-3.578-8-8V248c0-4.422,3.578-8,8-8s8,3.578,8,8v144
				C328,396.422,324.422,400,320,400z"/>
		</g>
	</g>
	<g>
		<g>
			<path style="fill:#B4B6BC;" d="M288,400c-4.422,0-8-3.578-8-8V248c0-4.422,3.578-8,8-8s8,3.578,8,8v144
				C296,396.422,292.422,400,288,400z"/>
		</g>
	</g>
	<g>
		<g>
			<path style="fill:#B4B6BC;" d="M352,400c-4.422,0-8-3.578-8-8V248c0-4.422,3.578-8,8-8s8,3.578,8,8v144
				C360,396.422,356.422,400,352,400z"/>
		</g>
	</g>
	<g>
		<g>
			<path style="fill:#B4B6BC;" d="M160,400c-4.422,0-8-3.578-8-8V248c0-4.422,3.578-8,8-8s8,3.578,8,8v144
				C168,396.422,164.422,400,160,400z"/>
		</g>
	</g>
	<g>
		<g>
			<path style="fill:#868491;" d="M376,256H136c-3.672,0-6.867-2.5-7.758-6.063c-0.891-3.555,0.758-7.266,3.992-9l120-64
				c2.359-1.25,5.172-1.25,7.531,0l120,64c3.234,1.734,4.883,5.445,3.992,9C382.867,253.5,379.672,256,376,256z M168,240h176
				l-88-46.93L168,240z"/>
		</g>
	</g>
	<g>
		<g>
			<g>
				<path style="fill:#5C546A;" d="M128,368c-4.422,0-8-3.578-8-8v-8c0-4.422,3.578-8,8-8s8,3.578,8,8v8
					C136,364.422,132.422,368,128,368z"/>
			</g>
		</g>
		<g>
			<g>
				<path style="fill:#5C546A;" d="M104,368c-4.422,0-8-3.578-8-8v-8c0-4.422,3.578-8,8-8s8,3.578,8,8v8
					C112,364.422,108.422,368,104,368z"/>
			</g>
		</g>
		<g>
			<g>
				<path style="fill:#5C546A;" d="M80,368c-4.422,0-8-3.578-8-8v-8c0-4.422,3.578-8,8-8s8,3.578,8,8v8
					C88,364.422,84.422,368,80,368z"/>
			</g>
		</g>
		<g>
			<g>
				<path style="fill:#5C546A;" d="M56,368c-4.422,0-8-3.578-8-8v-8c0-4.422,3.578-8,8-8s8,3.578,8,8v8
					C64,364.422,60.422,368,56,368z"/>
			</g>
		</g>
		<g>
			<g>
				<path style="fill:#5C546A;" d="M128,336c-4.422,0-8-3.578-8-8v-24c0-4.422,3.578-8,8-8s8,3.578,8,8v24
					C136,332.422,132.422,336,128,336z"/>
			</g>
		</g>
		<g>
			<g>
				<path style="fill:#5C546A;" d="M104,336c-4.422,0-8-3.578-8-8v-24c0-4.422,3.578-8,8-8s8,3.578,8,8v24
					C112,332.422,108.422,336,104,336z"/>
			</g>
		</g>
		<g>
			<g>
				<path style="fill:#5C546A;" d="M80,336c-4.422,0-8-3.578-8-8v-24c0-4.422,3.578-8,8-8s8,3.578,8,8v24
					C88,332.422,84.422,336,80,336z"/>
			</g>
		</g>
		<g>
			<g>
				<path style="fill:#5C546A;" d="M56,336c-4.422,0-8-3.578-8-8v-24c0-4.422,3.578-8,8-8s8,3.578,8,8v24
					C64,332.422,60.422,336,56,336z"/>
			</g>
		</g>
	</g>
	<g>
		<g>
			<path style="fill:#868491;" d="M271.781,232h-31.562c-4.422,0-8-3.578-8-8s3.578-8,8-8h31.562c4.422,0,8,3.578,8,8
				S276.203,232,271.781,232z"/>
		</g>
	</g>
	<g>
		<g>
			<path style="fill:#5C546A;" d="M504,400H8c-4.422,0-8-3.578-8-8s3.578-8,8-8h496c4.422,0,8,3.578,8,8S508.422,400,504,400z"/>
		</g>
	</g>
</g>
<g>
</g>
<g>
</g>
<g>
</g>
<g>
</g>
<g>
</g>
<g>
</g>
<g>
</g>
<g>
</g>
<g>
</g>
<g>
</g>
<g>
</g>
<g>
</g>
<g>
</g>
<g>
</g>
<g>
</g>
</svg>
